PathFileType	4	(x/y/z)	S04_M20_T03.trc
DataRate	CameraRate	NumFrames	NumMarkers	Units	OrigDataRate	OrigDataStartFrame	OrigNumFrames
240	240	9	51	mm	240	142	565
Frame#	Time	Sternum			R.Acromium			L.Acromium			Top.Head			R.ASIS			L.ASIS			R.PSIS			L.PSIS			R.Great.Tro			L.Great.Tro			R.Iliac.Crest			L.Iliac.Crest			V.Sacral			R.Thigh.Upper.Post			R.Thigh.Lower.Ant			R.Thigh.Lower.Post			R.Thigh.Upper.Ant			R.Knee.Lat			R.Knee.Med			R.Shank.Upper.Post			R.Shank.Lower.Ant			R.Shank.Lower.Post			R.Shank.Upper.Ant			R.Ankle.Lat			R.Ankle.Med			R.Heel.Upper			R.Heel.Med			R.Heel.Lat			R.Toe.Lat			R.Toe.Med			R.Toe.Tip			L.Thigh.Upper.Post			L.Thigh.Lower.Ant			L.Thigh.Lower.Post			L.Thigh.Upper.Ant			L.Knee.Lat			L.Knee.Med			L.Shank.Upper.Post			L.Shank.Lower.Ant			L.Shank.Lower.Post			L.Shank.Upper.Ant			L.Ankle.Lat			L.Ankle.Med			L.Heel.Upper			L.Heel.Med			L.Heel.Lat			L.Toe.Lat			L.Toe.Med			L.Toe.Tip			Cervical.Spine			Back			
		X1	Y1	Z1	X2	Y2	Z2	X3	Y3	Z3	X4	Y4	Z4	X5	Y5	Z5	X6	Y6	Z6	X7	Y7	Z7	X8	Y8	Z8	X9	Y9	Z9	X10	Y10	Z10	X11	Y11	Z11	X12	Y12	Z12	X13	Y13	Z13	X14	Y14	Z14	X15	Y15	Z15	X16	Y16	Z16	X17	Y17	Z17	X18	Y18	Z18	X19	Y19	Z19	X20	Y20	Z20	X21	Y21	Z21	X22	Y22	Z22	X23	Y23	Z23	X24	Y24	Z24	X25	Y25	Z25	X26	Y26	Z26	X27	Y27	Z27	X28	Y28	Z28	X29	Y29	Z29	X30	Y30	Z30	X31	Y31	Z31	X32	Y32	Z32	X33	Y33	Z33	X34	Y34	Z34	X35	Y35	Z35	X36	Y36	Z36	X37	Y37	Z37	X38	Y38	Z38	X39	Y39	Z39	X40	Y40	Z40	X41	Y41	Z41	X42	Y42	Z42	X43	Y43	Z43	X44	Y44	Z44	X45	Y45	Z45	X46	Y46	Z46	X47	Y47	Z47	X48	Y48	Z48	X49	Y49	Z49	X50	Y50	Z50	X51	Y51	Z51	

142	0.5875	-163.39	1276	245.31	-276.69	1504.2	427.45	-313.97	1486.3	79.027	-297.89	1826.9	238.39	-171.42	995.46	381.82	-202.37	1007.7	132.48	-394.31	1030.5	312.66	-396.2	1037.3	232.76	-243.83	917.9	459.4	-332.91	928.63	86.484	-258.28	1084.8	438.36	-305.48	1088.4	98.837	-416.94	992.51	273.82	-142.53	675.56	449.34	-43.952	632.55	404.84	-106.02	593.78	431.33	-80.268	735.19	427.33	-62.128	541.03	419.16	-89.075	528.81	285.14	-130.15	316.79	423.42	-61.012	239.01	385.6	-128.66	246.5	410.69	-65.403	309.5	406.36	-113.19	127.3	396.79	-89.553	142.58	307.62	-172.94	88.534	337.83	-159.53	60.186	307.92	-166.31	56.294	371.66	1.9124	63.663	425.44	40.136	72.448	310.89	98.382	98.036	360.03	-373.99	699.34	111.44	-305.61	593.38	116.26	-375.71	610.8	124.67	-308.66	682.34	97.879	-352.33	510.25	132.56	-343.62	501.89	257.56	-465.26	343.78	145.85	-408.08	248.68	150.32	-469.91	266.64	156.87	-403.39	324.53	139.12	-449.77	104.8	177.25	-447.31	115.15	270.57	-531.19	76.356	224.74	-524.7	49.427	256.93	-527.93	49.119	195.27	-344.67	40.71	153.71	-311.91	42.131	270.05	-254.84	49.843	219.58	-346.13	1546.7	262.31	-423.31	1289.3	253.24
143	0.59167	-158.58	1275.3	245.28	-271.46	1503.5	427.63	-309.11	1485.6	79.219	-292.58	1826.3	238.62	-166.39	994.85	381.55	-198.12	1007	132.28	-389.45	1030	313.09	-391.58	1036.8	233.19	-238.56	917.41	459.46	-328.99	928.25	86.726	-253.08	1084.1	438.4	-301.06	1087.9	98.995	-412.2	992	274.31	-137.18	675.13	449.4	-38.611	632.33	404.7	-100.53	593.44	431.35	-75.098	734.9	427.23	-56.15	541.01	419.13	-83.483	528.37	285.17	-119.84	315.5	423.56	-49.295	239.2	385.43	-116.97	245.28	410.78	-55.063	309.58	406.26	-98.947	126.39	396.72	-76.129	142.27	307.48	-158.35	86.416	338.05	-144.41	58.361	308.11	-150.71	54.289	371.82	17.555	65.215	424.78	54.956	74.849	310.01	112.9	101.62	358.87	-371.16	699.34	111.69	-303.28	593.05	116.37	-373.31	610.79	124.86	-305.93	682.05	98.049	-350.46	510.12	132.6	-341.56	501.62	257.6	-464.13	344.14	146.02	-407.38	248.77	150.39	-469.07	267.02	157	-402.38	324.61	139.2	-449.6	105	177.4	-447.04	115.34	270.7	-531.09	76.579	224.95	-524.61	49.588	257.09	-527.86	49.385	195.44	-344.65	40.72	153.76	-311.83	42.04	270.09	-254.76	49.678	219.58	-341.06	1546.1	262.57	-418.52	1288.8	253.58
144	0.59583	-153.75	1274.5	245.24	-266.2	1502.8	427.82	-304.25	1484.9	79.42	-287.25	1825.7	238.87	-161.35	994.21	381.28	-193.84	1006.3	132.08	-384.58	1029.5	313.53	-386.94	1036.3	233.64	-233.27	916.89	459.53	-325.04	927.86	86.975	-247.85	1083.5	438.45	-296.63	1087.4	99.16	-407.44	991.47	274.8	-131.87	674.66	449.49	-33.321	632.04	404.59	-95.11	593.03	431.39	-69.962	734.54	427.15	-50.245	540.93	419.13	-77.95	527.88	285.24	-109.59	314.25	423.69	-37.663	239.47	385.24	-105.33	244.13	410.86	-44.803	309.71	406.16	-84.759	125.6	396.61	-62.786	142.07	307.33	-143.81	84.432	338.24	-129.33	56.683	308.27	-135.15	52.436	371.94	33.081	66.911	424.09	69.636	77.383	309.09	127.26	105.34	357.68	-368.32	699.32	111.95	-300.93	592.72	116.48	-370.87	610.76	125.05	-303.19	681.74	98.218	-348.56	509.99	132.65	-339.48	501.34	257.64	-462.98	344.51	146.2	-406.66	248.86	150.47	-468.23	267.41	157.16	-401.34	324.69	139.28	-449.42	105.22	177.55	-446.76	115.53	270.83	-530.97	76.819	225.17	-524.51	49.767	257.27	-527.79	49.671	195.63	-344.63	40.732	153.82	-311.75	41.949	270.13	-254.68	49.51	219.59	-335.98	1545.5	262.83	-413.72	1288.3	253.93
145	0.6	-148.91	1273.8	245.21	-260.93	1502.1	428.01	-299.38	1484.2	79.628	-281.92	1825	239.12	-156.29	993.54	381.01	-189.55	1005.6	131.89	-379.69	1028.9	313.97	-382.28	1035.7	234.08	-227.98	916.35	459.6	-321.09	927.45	87.229	-242.6	1082.8	438.49	-292.18	1086.8	99.332	-402.66	990.92	275.3	-126.61	674.15	449.61	-28.08	631.68	404.52	-89.747	592.58	431.46	-64.86	734.13	427.09	-44.41	540.81	419.16	-72.472	527.32	285.32	-99.398	313.03	423.81	-26.119	239.8	385.05	-93.76	243.06	410.93	-34.624	309.87	406.07	-70.641	124.94	396.48	-49.529	141.97	307.15	-129.32	82.585	338.41	-114.32	55.155	308.39	-119.65	50.735	372.03	48.483	68.745	423.37	84.17	80.042	308.15	141.45	109.16	356.46	-365.45	699.3	112.22	-298.56	592.38	116.58	-368.41	610.73	125.25	-300.42	681.42	98.387	-346.64	509.85	132.7	-337.36	501.05	257.7	-461.82	344.87	146.39	-405.92	248.96	150.55	-467.37	267.79	157.33	-400.28	324.77	139.38	-449.23	105.45	177.71	-446.46	115.73	270.97	-530.85	77.08	225.4	-524.41	49.966	257.46	-527.71	49.977	195.82	-344.6	40.745	153.88	-311.67	41.861	270.16	-254.59	49.342	219.59	-330.87	1544.9	263.11	-408.9	1287.8	254.29
146	0.60417	-144.05	1273	245.19	-255.64	1501.3	428.22	-294.5	1483.5	79.845	-276.57	1824.4	239.39	-151.21	992.86	380.74	-185.23	1004.8	131.7	-374.78	1028.4	314.41	-377.6	1035.2	234.53	-222.68	915.78	459.67	-317.11	927.04	87.488	-237.31	1082.1	438.53	-287.72	1086.3	99.51	-397.86	990.36	275.8	-121.39	673.59	449.74	-22.885	631.26	404.49	-84.439	592.07	431.55	-59.789	733.67	427.06	-38.644	540.64	419.22	-67.046	526.72	285.43	-89.266	311.85	423.91	-14.668	240.2	384.86	-82.25	242.05	410.99	-24.529	310.07	405.97	-56.603	124.39	396.33	-36.363	141.97	306.95	-114.88	80.877	338.55	-99.382	53.776	308.48	-104.2	49.191	372.08	63.749	70.713	422.62	98.552	82.821	307.18	155.47	113.09	355.22	-362.56	699.26	112.48	-296.16	592.04	116.69	-365.93	610.69	125.45	-297.64	681.1	98.556	-344.69	509.7	132.76	-335.21	500.75	257.76	-460.63	345.24	146.6	-405.17	249.06	150.64	-466.5	268.18	157.51	-399.21	324.86	139.48	-449.03	105.69	177.87	-446.16	115.94	271.12	-530.72	77.364	225.64	-524.3	50.188	257.65	-527.62	50.305	196.02	-344.58	40.76	153.94	-311.58	41.773	270.2	-254.5	49.172	219.59	-325.76	1544.3	263.39	-404.06	1287.2	254.66
147	0.60833	-139.18	1272.2	245.17	-250.32	1500.6	428.43	-289.61	1482.8	80.072	-271.22	1823.7	239.68	-146.11	992.15	380.47	-180.9	1004.1	131.52	-369.85	1027.8	314.86	-372.9	1034.6	234.99	-217.36	915.19	459.74	-313.12	926.62	87.752	-232	1081.4	438.58	-283.26	1085.7	99.694	-393.04	989.79	276.31	-116.21	672.99	449.89	-17.734	630.78	404.48	-79.185	591.52	431.67	-54.748	733.15	427.06	-32.945	540.42	419.3	-61.669	526.06	285.56	-79.198	310.72	424	-3.3142	240.66	384.66	-70.812	241.12	411.04	-14.523	310.3	405.88	-42.656	123.97	396.16	-23.292	142.08	306.74	-100.51	79.309	338.65	-84.516	52.549	308.54	-88.836	47.803	372.11	78.869	72.806	421.85	112.78	85.712	306.19	169.3	117.12	353.97	-359.66	699.22	112.76	-293.74	591.69	116.79	-363.42	610.65	125.66	-294.84	680.76	98.724	-342.72	509.55	132.83	-333.03	500.44	257.82	-459.42	345.61	146.81	-404.4	249.16	150.74	-465.61	268.57	157.7	-398.11	324.94	139.58	-448.83	105.94	178.03	-445.84	116.16	271.27	-530.58	77.671	225.88	-524.18	50.434	257.85	-527.53	50.656	196.22	-344.55	40.775	154	-311.49	41.688	270.24	-254.42	49.001	219.59	-320.62	1543.6	263.68	-399.2	1286.7	255.04
148	0.6125	-134.29	1271.4	245.15	-244.98	1499.8	428.65	-284.7	1482	80.308	-265.85	1823	239.97	-140.99	991.41	380.21	-176.54	1003.3	131.34	-364.89	1027.2	315.32	-368.18	1034.1	235.46	-212.03	914.57	459.8	-309.11	926.18	88.02	-226.64	1080.7	438.62	-278.8	1085.1	99.884	-388.19	989.21	276.82	-111.08	672.34	450.06	-12.624	630.24	404.5	-73.982	590.91	431.81	-49.735	732.57	427.07	-27.31	540.16	419.4	-56.336	525.35	285.71	-69.2	309.63	424.08	7.9378	241.19	384.46	-59.45	240.25	411.08	-4.607	310.56	405.79	-28.809	123.66	395.97	-10.321	142.29	306.51	-86.201	77.884	338.73	-69.735	51.472	308.56	-73.558	46.572	372.09	93.833	75.018	421.06	126.84	88.707	305.19	182.95	121.24	352.72	-356.73	699.17	113.04	-291.31	591.33	116.88	-360.89	610.6	125.88	-292.02	680.42	98.891	-340.73	509.39	132.9	-330.82	500.13	257.9	-458.2	345.99	147.03	-403.61	249.27	150.84	-464.72	268.96	157.91	-396.99	325.04	139.69	-448.61	106.21	178.2	-445.52	116.39	271.42	-530.42	78.005	226.12	-524.05	50.708	258.05	-527.44	51.032	196.43	-344.53	40.791	154.06	-311.4	41.605	270.27	-254.32	48.829	219.59	-315.46	1542.9	263.99	-394.32	1286.1	255.42
149	0.61667	-129.38	1270.5	245.14	-239.62	1499	428.87	-279.8	1481.2	80.553	-260.47	1822.3	240.29	-135.86	990.66	379.95	-172.16	1002.5	131.16	-359.91	1026.6	315.78	-363.43	1033.5	235.93	-206.68	913.93	459.87	-305.09	925.74	88.294	-221.24	1079.9	438.66	-274.34	1084.4	100.08	-383.33	988.61	277.34	-105.98	671.66	450.25	-7.5512	629.65	404.56	-68.825	590.26	431.98	-44.746	731.95	427.11	-21.739	539.85	419.53	-51.044	524.59	285.88	-59.274	308.57	424.14	19.083	241.77	384.26	-48.169	239.46	411.1	5.2149	310.86	405.71	-15.072	123.47	395.76	2.5456	142.59	306.26	-71.971	76.6	338.77	-55.046	50.544	308.54	-58.38	45.498	372.05	108.63	77.341	420.26	140.74	91.797	304.19	196.41	125.43	351.48	-353.78	699.12	113.32	-288.85	590.98	116.98	-358.33	610.55	126.1	-289.18	680.08	99.057	-338.71	509.24	132.98	-328.59	499.82	257.98	-456.95	346.37	147.26	-402.81	249.39	150.95	-463.8	269.36	158.12	-395.86	325.14	139.81	-448.39	106.48	178.37	-445.18	116.63	271.58	-530.26	78.367	226.36	-523.92	51.011	258.26	-527.33	51.434	196.64	-344.5	40.808	154.13	-311.3	41.525	270.3	-254.23	48.656	219.58	-310.29	1542.2	264.3	-389.43	1285.5	255.81
150	0.62083	-124.46	1269.7	245.13	-234.24	1498.2	429.1	-274.88	1480.5	80.809	-255.08	1821.6	240.62	-130.7	989.88	379.69	-167.76	1001.7	131	-354.91	1026	316.25	-358.66	1032.9	236.41	-201.32	913.27	459.94	-301.04	925.29	88.573	-215.8	1079.2	438.7	-269.89	1083.8	100.28	-378.44	988	277.87	-100.91	670.94	450.46	-2.5137	629	404.63	-63.711	589.56	432.16	-39.78	731.28	427.17	-16.227	539.49	419.68	-45.789	523.8	286.06	-49.424	307.56	424.19	30.118	242.41	384.07	-36.977	238.74	411.11	14.94	311.19	405.62	-1.4553	123.39	395.54	15.304	142.99	306	-57.827	75.459	338.78	-40.458	49.765	308.48	-43.315	44.579	371.97	123.25	79.766	419.46	154.47	94.975	303.2	209.68	129.68	350.25	-350.81	699.07	113.61	-286.38	590.62	117.07	-355.75	610.5	126.33	-286.33	679.73	99.222	-336.68	509.09	133.06	-326.33	499.5	258.06	-455.68	346.76	147.49	-402	249.51	151.06	-462.88	269.77	158.33	-394.7	325.24	139.93	-448.15	106.77	178.54	-444.83	116.89	271.74	-530.08	78.759	226.61	-523.77	51.346	258.47	-527.22	51.864	196.85	-344.47	40.825	154.19	-311.2	41.447	270.34	-254.14	48.484	219.58	-305.1	1541.5	264.62	-384.52	1284.9	256.21
